<svg id="Layer_1" data-name="Layer 1" xmlns="http://www.w3.org/2000/svg" viewBox="0 0 869.28 233.48"><defs><style>.cls-1{fill:#de353d;stroke:#000;stroke-miterlimit:10;stroke-width:4px;}</style></defs><title>LOGO</title><path class="cls-1" d="M261.52,456h42q12.42,0,20.07,3.37a32.68,32.68,0,0,1,12.64,9.68,39.87,39.87,0,0,1,7.24,14.67,68,68,0,0,1,2.25,17.73q0,14.67-3.34,22.75a37.75,37.75,0,0,1-9.27,13.55A30.29,30.29,0,0,1,320.39,545a65.82,65.82,0,0,1-16.86,2.5h-42Zm28.28,20.73v50h6.93q8.86,0,12.61-2a13.4,13.4,0,0,0,5.87-6.86q2.12-4.9,2.12-15.89,0-14.55-4.75-19.91t-15.73-5.37Z" transform="translate(-72.09 -317.62)"/><path class="cls-1" d="M368.07,456h75.78v19.54H396.41v14.55h44v18.66h-44v18h48.81v20.73H368.07Z" transform="translate(-72.09 -317.62)"/><path class="cls-1" d="M467.87,456h47q15.35,0,23,7.31t7.64,20.78q0,13.86-8.33,21.66t-25.44,7.81H496.27v34h-28.4Zm28.4,39h6.93q8.18,0,11.49-2.84a9.18,9.18,0,0,0,3.31-7.27,10.15,10.15,0,0,0-2.88-7.31q-2.86-3-10.79-3h-8.06Z" transform="translate(-72.09 -317.62)"/><path class="cls-1" d="M564.3,501.84q0-22.41,12.49-34.89t34.77-12.49q22.85,0,35.2,12.27t12.36,34.36q0,16.05-5.4,26.31a38.44,38.44,0,0,1-15.6,16q-10.22,5.72-25.44,5.72-15.48,0-25.62-4.94a38.5,38.5,0,0,1-16.45-15.6Q564.29,517.88,564.3,501.84Zm28.28.13q0,13.86,5.15,19.91t14,6q9.12,0,14.11-5.93t5-21.28q0-12.93-5.21-18.88t-14.14-6a17.16,17.16,0,0,0-13.73,6.06Q592.58,488,592.58,502Z" transform="translate(-72.09 -317.62)"/><path class="cls-1" d="M672.16,456h86v22.6H729.28v68.92H701V478.62H672.16Z" transform="translate(-72.09 -317.62)"/><path class="cls-1" d="M74.1,323.54l39.65-.47q7.32,49.82,15,99.57,7.52-50,15.5-99.9l39.63-.39q-.41,73.36-.82,146.73c-9.84,2.94-14.76,4.47-24.59,7.65q.27-58.78.55-117.55Q148.89,421,139.54,483c-8.89,3-13.32,4.59-22.19,7.8q-9.6-63-18.62-126.12l-.21,133.11c-9.78,3.73-14.67,5.64-24.43,9.59Q74.09,415.46,74.1,323.54Z" transform="translate(-72.09 -317.62)"/><path class="cls-1" d="M270.35,426q-17.15,3.21-34.23,6.71c-2,9.16-3,13.78-4.91,23.09q-15.42,3.9-30.73,8.25Q218.15,392.65,238,321.89l32.9-.23q17,59.05,35.77,117.59-15.85,3-31.63,6.27C273.19,437.75,272.24,433.84,270.35,426Zm-6.05-26.14q-5.28-22.33-10.43-44.69-5.61,23.89-11,47.84C251.44,401.64,255.72,401,264.3,399.81Z" transform="translate(-72.09 -317.62)"/><path class="cls-1" d="M309,321.42q45.84-.26,91.69-.4c-.06,10.38-.09,15.57-.14,26q-15.41.39-30.8.93-.27,40.83-.53,81.67-15.17,1.89-30.27,4.23.3-42.37.61-84.76-15.39.65-30.78,1.4Q308.89,335.93,309,321.42Z" transform="translate(-72.09 -317.62)"/><path class="cls-1" d="M415.52,321q45.86-.12,91.7-.12v24.71q-15.41,0-30.81.12-.06,37.83-.13,75.68-15.16.39-30.33,1.26.12-38.29.25-76.6-15.39.23-30.8.58C415.45,336.36,415.48,331.23,415.52,321Z" transform="translate(-72.09 -317.62)"/><path class="cls-1" d="M529.44,421.18q-.06-50.16-.13-100.31,25.14,0,50.28.07,14,0,21.38,2.6a23.13,23.13,0,0,1,12,9.64c3,4.7,4.58,10.44,4.62,17.16a30.28,30.28,0,0,1-3.38,15,26,26,0,0,1-9.5,9.82,33.46,33.46,0,0,1-10.6,3.61A30.77,30.77,0,0,1,602,383a34.19,34.19,0,0,1,4.87,5.77,43.86,43.86,0,0,1,4.27,6.78q7.51,15.9,14.84,31.9-17.12-1.77-34.25-3.2-8.07-16.22-16.32-32.36c-2.07-4.13-3.9-6.85-5.51-8.08a12.5,12.5,0,0,0-7.42-2.61l-2.67-.08.12,41.13Q544.68,421.48,529.44,421.18ZM559.73,362c5.1.11,7.65.16,12.75.29a42.34,42.34,0,0,0,8-1.18,7.61,7.61,0,0,0,4.89-3.08,9.59,9.59,0,0,0,1.87-5.92c0-3.32-1-5.9-3-7.71s-5.77-2.76-11.28-2.83c-5.3-.08-7.95-.11-13.26-.17C559.69,349.6,559.71,353.72,559.73,362Z" transform="translate(-72.09 -317.62)"/><path class="cls-1" d="M643,321.13q40.42.17,80.84.4c.07,10.35.11,15.53.19,25.88q-25.31-1.21-50.62-2.14c0,7.15.07,10.73.13,17.88q23.49,1.43,47,3.23c.07,9.83.11,14.74.19,24.57q-23.48-2.74-47-4.86c.07,8.87.1,13.31.16,22.18Q700,411.51,726,415.49l.21,27.51q-41.07-8.06-82.52-13.48Q643.31,375.33,643,321.13Z" transform="translate(-72.09 -317.62)"/><path class="cls-1" d="M744.93,405.54q14.34,1,28.67,2.11,1,9.59,3.9,15.11c3.14,6,7.6,9.62,13.36,10.87,4.3.93,7.6.25,9.91-2.12a12.62,12.62,0,0,0,3.42-9.28,18,18,0,0,0-3.39-10.3c-2.23-3.23-7.4-6.82-15.48-10.5-10.4-4.73-21.09-10.8-28.4-19.69q-8.61-10.5-8.71-25.29a39.25,39.25,0,0,1,4.23-18.21,31.83,31.83,0,0,1,13-13.54c5.81-3.32,14.3-5.51,24-5,9.86.51,21.12,2,28.59,10.34,8.09,9,11,21.78,11.87,33.57l-28.39-.1q-1.18-9.47-4.85-13.93a13.17,13.17,0,0,0-10-4.73c-3.51-.18-6.14.71-7.9,2.64a10.21,10.21,0,0,0-2.61,7.23,9.45,9.45,0,0,0,2.24,5.86c1.44,1.82,4.81,3.78,10.15,5.8,10,3.81,20.27,8.43,28.38,15.33a43.54,43.54,0,0,1,12.52,17.82,63.58,63.58,0,0,1,4,22.49c0,9.47-1.62,17.83-5,24.86s-8.19,11.64-14.36,13.89-14.07,1.81-23.41-.54c-12.94-3.25-26.89-10-34.56-21.14C749.35,429.36,745.74,417.45,744.93,405.54Z" transform="translate(-72.09 -317.62)"/><path class="cls-1" d="M851.28,425q14.29,1.68,28.57,3.47,1,11.83,3.83,18.71c3.11,7.45,7.53,12.11,13.26,13.83,4.28,1.28,7.57.53,9.87-2.33s3.46-6.69,3.45-11.41a26.63,26.63,0,0,0-3.33-12.84c-2.21-4.06-7.35-8.59-15.39-13.33-10.79-6.35-21.36-14.34-28.25-24.88-6-9.15-8.63-20.22-8.64-31.11a57.42,57.42,0,0,1,4.25-22.24,36.9,36.9,0,0,1,13-16.54c5.82-4.07,13.91-6.09,24-6.14,10.87-.05,22.08,3.92,28.54,12.85,8.33,11.52,11,27.64,11.69,41.8q-14.17-.15-28.34-.37-1.14-11.76-4.78-17.29a12.45,12.45,0,0,0-10-5.94c-3.51-.24-6.14.84-7.9,3.21a14.28,14.28,0,0,0-2.63,8.87,13.5,13.5,0,0,0,2.21,7.25c1.44,2.27,4.8,4.72,10.11,7.29,10.22,5,20.55,11,28.26,19.35a57.56,57.56,0,0,1,12.4,22.32,90.27,90.27,0,0,1,3.87,28.05c-.36,10.36-1.18,21-5.14,30.84-3.45,8.61-8.21,14.27-14.35,16.89s-14,1.83-23.27-1.45c-13.84-4.88-27.29-14.41-34.31-27.42S852.83,439.59,851.28,425Z" transform="translate(-72.09 -317.62)"/></svg>